<svg width="113" height="88" fill="none" xmlns="http://www.w3.org/2000/svg"><path d="M82.75 87.4L66.125 86c-.875 0-1.575-.876-1.575-1.75v-21l-8.05-7-8.05 7v21c0 .874-.7 1.574-1.575 1.75l-16.45 1.4c-.525 0-.875-.176-1.225-.526-.35-.35-.525-.7-.525-1.225V42.074c0-.875.7-1.75 1.75-1.75h52.5c.875 0 1.75.7 1.75 1.75v43.4c0 .525-.175.875-.525 1.225-.525.525-1.05.7-1.4.7zm-14.875-4.726L81 83.724v-39.9H32v39.9l13.125-1.05V62.55c0-.525.175-.875.525-1.225l9.8-8.575c.7-.525 1.575-.525 2.275 0l9.8 8.575c.35.35.525.7.525 1.225v20.125h-.175z" fill="#2693FF"/><path d="M30.25 87.4h-.525l-28-8.75C1.025 78.475.5 77.775.5 77.075v-43.4c0-.525.175-1.05.7-1.4.35-.35 1.05-.525 1.575-.35l28 8.575c.875.35 1.4 1.225 1.05 2.1-.35.875-1.225 1.4-2.1 1.05l-25.9-7.7v39.9l26.95 8.225c.875.35 1.4 1.225 1.05 2.1-.175.7-.875 1.225-1.575 1.225zm52.5 0c-.7 0-1.4-.525-1.575-1.225-.35-.875.175-1.925 1.05-2.1l26.95-8.225v-39.9l-25.9 7.875c-.875.35-1.925-.175-2.1-1.05-.35-.875.175-1.925 1.05-2.1L110.4 32.1c.525-.175 1.05 0 1.575.175.35.35.7.875.7 1.4v43.4c0 .7-.525 1.4-1.225 1.575l-28.175 8.575c-.175 0-.35.175-.525.175z" fill="#2693FF"/><path d="M110.75 35.25c-.175 0-.35 0-.7-.175-23.8-9.275-41.475-19.25-53.55-30.45C44.425 15.825 26.75 25.8 2.775 35.25 1.9 35.6.85 35.075.5 34.2c-.35-.875.175-1.925 1.05-2.275 24.325-9.45 42-19.6 53.725-30.8.7-.7 1.75-.7 2.275 0 11.725 11.375 29.4 21.35 53.725 30.8.875.35 1.225 1.4 1.05 2.275-.175.7-.875 1.05-1.575 1.05z" fill="#2693FF"/><path d="M30.25 43.824c-.35 0-.875-.175-1.225-.525-.7-.7-.7-1.75 0-2.45 11.725-11.9 20.125-24.675 25.9-39.025.175-.7.875-1.05 1.575-1.05s1.4.35 1.575 1.05c5.775 14.35 14.175 27.3 25.9 39.2.7.7.7 1.75 0 2.45-.7.7-1.75.7-2.45 0C70.5 32.1 62.275 20.024 56.5 6.724c-5.775 13.3-14 25.2-25.025 36.575-.35.35-.7.525-1.225.525z" fill="#2693FF"/></svg>